<?xml version="1.0"
        encoding="UTF-8"
        standalone="no"?>
<!DOCTYPE svg PUBLIC "-//W3C//DTD SVG 1.1//EN" "http://www.w3.org/Graphics/SVG/1.1/DTD/svg11.dtd">
<svg width="100%" height="100%"
     viewBox="0 0 320 312" version="1.1"
     xmlns="http://www.w3.org/2000/svg"
     xmlns:xlink="http://www.w3.org/1999/xlink" xml:space="preserve"
     xmlns:serif="http://www.serif.com/"
     style="fill-rule:evenodd;clip-rule:evenodd;stroke-linecap:round;stroke-linejoin:round;stroke-miterlimit:1.5;">
    <path d="M41.753,199.236l18.646,9.418" style="fill:none;stroke:#3c3c3c;stroke-width:12px;"/>
    <path d="M78.619,166.876l4.377,16.737" style="fill:none;stroke:#3c3c3c;stroke-width:12px;"/>
    <path d="M118.527,161.177l8.161,12.819" style="fill:none;stroke:#3c3c3c;stroke-width:12px;"/>
    <path d="M148.718,131.958l18.748,7.573" style="fill:none;stroke:#3c3c3c;stroke-width:12px;"/>
    <path d="M161.905,89.464l17.747,5.514" style="fill:none;stroke:#3c3c3c;stroke-width:12px;"/>
    <circle cx="223.825" cy="101.509" r="18.636" style="fill:none;stroke:#3c3c3c;stroke-width:12px;"/>
    <circle cx="102.71" cy="224.47" r="15.817" style="fill:none;stroke:#3c3c3c;stroke-width:12px;"/>
    <ellipse cx="191.731" cy="193.698" rx="8.798" ry="8.604" style="fill:#3c3c3c;"/>
    <ellipse cx="190.548" cy="159.45" rx="8.798" ry="8.604" style="fill:#3c3c3c;"/>
    <ellipse cx="225.193" cy="164.604" rx="8.798" ry="8.604" style="fill:#3c3c3c;"/>
    <ellipse cx="106.628" cy="66.812" rx="8.798" ry="8.604" style="fill:#3c3c3c;"/>
    <ellipse cx="63.524" cy="105.754" rx="8.798" ry="8.604" style="fill:#3c3c3c;"/>
    <ellipse cx="144.169" cy="200.05" rx="8.798" ry="8.604" style="fill:#3c3c3c;"/>
    <ellipse cx="165.047" cy="224.355" rx="8.798" ry="8.604" style="fill:#3c3c3c;"/>
    <path d="M49.678,256.915l16.159,-9.815" style="fill:none;stroke:#3c3c3c;stroke-width:12px;"/>
    <path d="M88.401,282.91l5.38,-18.18" style="fill:none;stroke:#3c3c3c;stroke-width:12px;"/>
    <path d="M139.254,279.602l-3.883,-16.655" style="fill:none;stroke:#3c3c3c;stroke-width:12px;"/>
    <path d="M233.991,202.302l18.212,19.777" style="fill:none;stroke:#3c3c3c;stroke-width:12px;"/>
    <path d="M286.319,166.876l-27.933,-8.431" style="fill:none;stroke:#3c3c3c;stroke-width:12px;"/>
    <path d="M292.847,102.694l-26.133,0.087" style="fill:none;stroke:#3c3c3c;stroke-width:12px;"/>
    <path d="M178.294,103.625c3.281,-32.942 24.324,-45.906 49.109,-44.824c39.893,1.741 41.349,43.903 39.005,66.107c-2.343,22.203 -14.369,65.859 -52.2,97.731c-37.831,31.873 -69.959,40.212 -96.671,43.05c-39.85,4.234 -57.712,-18.68 -59.001,-39.287c-1.289,-20.606 8.516,-43.898 40.469,-46.311c36.682,-2.77 74.171,-25.085 79.289,-76.466Z" style="fill:none;stroke:#3c3c3c;stroke-width:12px;"/>
    <path d="M182.932,244.753l9.189,14.942" style="fill:none;stroke:#3c3c3c;stroke-width:12px;"/>
    <path d="M261.103,44.667l-12.491,20.572" style="fill:none;stroke:#3c3c3c;stroke-width:12px;"/>
    <path d="M182.932,45.089l13.16,20.15" style="fill:none;stroke:#3c3c3c;stroke-width:12px;"/>
    <path d="M104.595,44.667c38.028,-5.218 49.029,31.79 12.122,41.963c-29.154,8.037 -30.734,13.447 -33.42,34.308c-2.823,21.92 -41.707,19.567 -41.543,-8.452c0.104,-17.802 2.119,-59.487 62.841,-67.819Z" style="fill:none;stroke:#3c3c3c;stroke-width:12px;"/></svg>